<svg xmlns="http://www.w3.org/2000/svg" viewBox="0 0 30 30"><defs><style>.cls-1{fill:#ffeecd;}.cls-2{fill:#2c292f;}</style></defs><g id="Warstwa_1" data-name="Warstwa 1"><circle class="cls-1" cx="15" cy="15" r="15"/><path class="cls-2" d="M21.23,20.74H16.55l0-.26a1.61,1.61,0,0,0-3.2,0l0,.26H8.77a1.38,1.38,0,0,1-1.38-1.38v-2a2.2,2.2,0,0,1,4.4,0H11.2a1.61,1.61,0,0,0-3.22,0v2a.79.79,0,0,0,.79.79h4a2.2,2.2,0,0,1,4.27,0h4.18a.79.79,0,0,0,.79-.79v-2a1.61,1.61,0,0,0-3.22,0h-.59a2.2,2.2,0,0,1,4.4,0v2A1.38,1.38,0,0,1,21.23,20.74Z"/><path class="cls-2" d="M14.92,18.2a1.41,1.41,0,1,1,1.4-1.41A1.41,1.41,0,0,1,14.92,18.2Zm0-2.23a.82.82,0,0,0,0,1.64.82.82,0,0,0,0-1.64Z"/><path class="cls-2" d="M20.41,14.89a1.41,1.41,0,1,1,1.41-1.41A1.41,1.41,0,0,1,20.41,14.89Zm0-2.22a.82.82,0,0,0-.82.81.82.82,0,0,0,1.64,0A.82.82,0,0,0,20.41,12.67Z"/><path class="cls-2" d="M9.59,14.89A1.41,1.41,0,1,1,11,13.48,1.41,1.41,0,0,1,9.59,14.89Zm0-2.22a.82.82,0,0,0-.82.81.82.82,0,0,0,1.64,0A.82.82,0,0,0,9.59,12.67Z"/><path class="cls-2" d="M14.92,11.09a1.41,1.41,0,1,1,1.4-1.41A1.41,1.41,0,0,1,14.92,11.09Zm0-2.23a.82.82,0,0,0,0,1.64.82.82,0,0,0,0-1.64Z"/><path class="cls-2" d="M17.12,13.58h-.59a1.62,1.62,0,0,0-3.23,0h-.59a2.21,2.21,0,0,1,4.41,0Z"/></g></svg>