<svg xmlns="http://www.w3.org/2000/svg" viewBox="0 0 30 30"><defs><style>.cls-1{fill:#ffeecd;}.cls-2{fill:#2c292f;}</style></defs><g id="Warstwa_1" data-name="Warstwa 1"><circle class="cls-1" cx="15" cy="15" r="15"/><path class="cls-2" d="M13.58,19.12H11.32V17.61a4.18,4.18,0,0,1-1-.39L9.23,18.29,7.62,16.73l1.11-1.07a3.84,3.84,0,0,1-.4-.93H6.76V12.52H8.33a4,4,0,0,1,.4-.92L7.62,10.53,9.23,9,10.34,10a4.18,4.18,0,0,1,1-.39V8.14h2.27V9.65a4.18,4.18,0,0,1,1,.39L15.68,9l1.61,1.56L16.18,11.6a4,4,0,0,1,.4.92h.93v.59h-1.4l-.05-.23a3.37,3.37,0,0,0-.5-1.17l-.14-.2,1-1-.76-.74-1,1-.19-.13a3.7,3.7,0,0,0-1.22-.48L13,10.12V8.73H11.91v1.39l-.24.05a3.7,3.7,0,0,0-1.22.48l-.19.13-1-1-.76.74,1,1-.14.2a3.37,3.37,0,0,0-.5,1.17l0,.23H7.35v1H8.8l0,.23a3.29,3.29,0,0,0,.5,1.17l.14.21-1,1,.76.74,1-1,.19.12a3.72,3.72,0,0,0,1.22.49l.24.05v1.39H13V17.22h.59Zm-1.13-3.54a2,2,0,1,1,2-1.95A2,2,0,0,1,12.45,15.58Zm0-3.32a1.37,1.37,0,1,0,1.43,1.37A1.4,1.4,0,0,0,12.45,12.26Z"/><path class="cls-2" d="M20.12,22.31H17.53V21a3.43,3.43,0,0,1-.49-.28l-1.23.71-1.29-2.24,1.21-.69c0-.12,0-.23,0-.33s0-.16,0-.24l-1.2-.69L15.81,15l1.16.67a3.16,3.16,0,0,1,.56-.33V14h2.59V15.3a2.7,2.7,0,0,1,.52.3l1.2-.69,1.29,2.23-1.21.7c0,.1,0,.2,0,.29a2.45,2.45,0,0,1,0,.27l1.21.7-1.29,2.24-1.19-.69a4.07,4.07,0,0,1-.53.31Zm-2-.59h1.41V20.56l.19-.07a3.23,3.23,0,0,0,.72-.42l.15-.13,1,.59.7-1.21-1-.6,0-.2a1.91,1.91,0,0,0,0-.39,2,2,0,0,0,0-.4l0-.2,1-.6-.7-1.22-1,.6-.16-.13a2.63,2.63,0,0,0-.71-.41l-.19-.07V14.57H18.12V15.7l-.19.07a2.64,2.64,0,0,0-.74.44l-.16.14-1-.58L15.33,17l1,.6,0,.19a2.49,2.49,0,0,0,0,.36,3.44,3.44,0,0,0,0,.43l0,.2-1,.61.7,1.21L17.09,20l.16.13a2.68,2.68,0,0,0,.68.39l.19.07Z"/><path class="cls-2" d="M18.82,19.68a1.53,1.53,0,1,1,1.58-1.53A1.55,1.55,0,0,1,18.82,19.68Zm0-2.47a.94.94,0,1,0,1,.94A1,1,0,0,0,18.82,17.21Z"/></g></svg>